<svg xmlns="http://www.w3.org/2000/svg" enable-background="new 0 0 24 24" viewBox="0 0 24 24" id="gmail">
  <path fill="#EAEAEA" d="M22.5,21h-21C0.672,21,0,20.328,0,19.5v-15c0-0.829,0.672-1.5,1.5-1.5h21c0.828,0,1.5,0.671,1.5,1.5v15C24,20.328,23.328,21,22.5,21L22.5,21z"></path>
  <path fill="#D54C3F" d="M3,21H1.5C0.672,21,0,20.328,0,19.5v-15c0-0.829,0.672-1.5,1.5-1.5c0.829,0,1.5,0.671,1.5,1.5V21L3,21z"></path>
  <path fill="#B63524" d="M21,21h1.5c0.828,0,1.5-0.672,1.5-1.5v-15C24,3.672,23.328,3,22.5,3C21.671,3,21,3.672,21,4.5V21z"></path>
  <path fill="#DE5145" d="M23.359,5.73c0.679-0.474,0.845-1.41,0.371-2.089c-0.475-0.679-1.409-0.846-2.089-0.371l-9.64,7.018l-0.001,0l-0.001,0L2.359,3.27C1.68,2.796,0.745,2.963,0.27,3.641C-0.204,4.321-0.038,5.256,0.641,5.73l-0.04-0.03L12,14L23.359,5.73L23.359,5.73z M23.399,5.701L12,14L23.399,5.701L23.399,5.701z"></path>
  <path fill="#EFEFEF" d="M22.5,3.001c-0.32,0-0.616,0.1-0.859,0.27l-9.64,7.018l-0.001,0l-0.001,0L2.359,3.27C2.108,3.094,1.807,3,1.5,3.001H22.5L22.5,3.001z"></path>
  <polygon fill="#C64132" points="3.001 8.094 .473 5.59 .471 5.592 .641 5.73 .602 5.701 3.001 7.448 3.001 8.112 3.001 8.094"></polygon>
  <polygon fill="#E3E3E3" points="10.334 15.296 3 21 3.001 8.032 10.333 15.293 10.334 15.296"></polygon>
  <linearGradient id="a" x1="-1825.344" x2="-1824.344" y1="341.035" y2="341.035" gradientTransform="translate(19481.559 -3623.649)scale(10.6672)" gradientUnits="userSpaceOnUse">
    <stop offset="0" stop-color="#d9d9d9"></stop>
    <stop offset="1" stop-color="#e2e2e2"></stop>
  </linearGradient>
  <polygon fill="url(#a)" points="21 7.448 12 14 12 16.964 16.03 21 21 21 21 7.448"></polygon>
  <path fill="#CCC" d="M3,7.447L3,7.447l0.001,0.001v0.584l7.332,7.262l0.001,0.002L3,21L3.001,8.094L3,8.093V21H1.5C0.672,21,0,20.328,0,19.5l0,0C0,20.328,0.672,21,1.5,21H12v-4.037l-1.666-1.668l-0.001,0.001l-0.001-0.002L3.001,8.032V7.448L12,14L3,7.447L3,7.447z M2.119,3.133c0.083,0.038,0.163,0.083,0.24,0.137l0.008,0.006l0,0L2.359,3.27C2.283,3.217,2.203,3.171,2.119,3.133L2.119,3.133z M2.108,3.129C2.11,3.13,2.113,3.131,2.115,3.132C2.113,3.131,2.11,3.13,2.108,3.129L2.108,3.129z M2.097,3.124c0.001,0,0.002,0.001,0.003,0.001C2.099,3.125,2.098,3.124,2.097,3.124L2.097,3.124z"></path>
  <path fill="#B94237" d="M0.631,5.722L0.631,5.722L3,7.448V7.447L0.631,5.722L0.631,5.722z M0,4.516V19.5C0,20.328,0.672,21,1.5,21H3V8.093L0.512,5.629C0.182,5.341,0.005,4.932,0,4.516L0,4.516z M0.052,4.107C0.052,4.108,0.052,4.108,0.052,4.107C0.052,4.108,0.052,4.108,0.052,4.107L0.052,4.107z M0.058,4.088c0,0.001-0.001,0.002-0.001,0.004C0.057,4.09,0.057,4.089,0.058,4.088L0.058,4.088z M0.063,4.068C0.063,4.071,0.062,4.073,0.061,4.075C0.062,4.073,0.063,4.071,0.063,4.068L0.063,4.068z M0.069,4.049c-0.001,0.003-0.002,0.007-0.003,0.01C0.067,4.056,0.068,4.052,0.069,4.049L0.069,4.049z M0.076,4.03C0.074,4.034,0.073,4.039,0.071,4.043C0.073,4.039,0.074,4.034,0.076,4.03L0.076,4.03z M0.339,3.55C0.225,3.69,0.135,3.851,0.076,4.027C0.121,3.893,0.185,3.763,0.27,3.641C0.292,3.61,0.316,3.579,0.339,3.55L0.339,3.55z M0.851,3.148c-0.001,0-0.002,0.001-0.003,0.001C0.849,3.149,0.85,3.148,0.851,3.148L0.851,3.148z M0.873,3.138C0.87,3.139,0.866,3.141,0.863,3.142C0.866,3.141,0.87,3.139,0.873,3.138L0.873,3.138z M1.15,3.042C1.056,3.064,0.966,3.095,0.88,3.134C0.967,3.095,1.058,3.064,1.15,3.042L1.15,3.042z M1.167,3.038C1.162,3.039,1.157,3.04,1.152,3.041C1.157,3.04,1.162,3.039,1.167,3.038L1.167,3.038z M1.183,3.034c-0.002,0-0.004,0.001-0.006,0.001C1.179,3.035,1.181,3.035,1.183,3.034L1.183,3.034z"></path>
  <path fill="#C1473C" d="M1.502,3C1.395,3,1.288,3.012,1.183,3.034c-0.002,0-0.004,0.001-0.006,0.001c-0.003,0.001-0.006,0.001-0.01,0.002C1.162,3.039,1.157,3.04,1.152,3.041c-0.001,0-0.002,0-0.002,0.001C1.058,3.064,0.967,3.095,0.88,3.134C0.878,3.135,0.875,3.137,0.873,3.138C0.87,3.139,0.866,3.141,0.863,3.142C0.859,3.144,0.855,3.146,0.851,3.148c-0.001,0-0.002,0.001-0.003,0.001C0.656,3.242,0.482,3.376,0.339,3.55C0.316,3.579,0.292,3.61,0.27,3.641C0.185,3.763,0.121,3.893,0.076,4.027c0,0.001-0.001,0.002-0.001,0.002C0.074,4.034,0.073,4.039,0.071,4.043c0,0.002-0.001,0.004-0.002,0.005c-0.001,0.003-0.002,0.007-0.003,0.01C0.065,4.062,0.064,4.065,0.063,4.068C0.063,4.071,0.062,4.073,0.061,4.075C0.06,4.08,0.059,4.084,0.058,4.088c0,0.001-0.001,0.002-0.001,0.004C0.055,4.097,0.054,4.102,0.052,4.107c0,0,0,0,0,0C0.019,4.231,0.001,4.358,0,4.483v0.032c0.005,0.416,0.182,0.825,0.512,1.114L0.491,5.608L0.471,5.592L0.473,5.59l0.018,0.018l0.14,0.114L3,7.447L12,14v-3.711l-0.001,0L2.368,3.276L2.359,3.27c-0.077-0.054-0.157-0.099-0.24-0.137C2.118,3.133,2.117,3.132,2.115,3.132C2.113,3.131,2.11,3.13,2.108,3.129C2.105,3.127,2.103,3.126,2.1,3.125c-0.001,0-0.002-0.001-0.003-0.001C1.911,3.043,1.71,3.001,1.505,3.001H1.5c0.001,0,0.003,0,0.004,0c0,0,0.001,0,0.001,0h0.04C1.53,3,1.516,3,1.502,3L1.502,3z"></path>
  <path fill="#D0D0D0" d="M12,3.001H1.545H1.505c0.205,0,0.406,0.042,0.592,0.123c0.001,0,0.002,0.001,0.003,0.001c0.003,0.001,0.005,0.002,0.008,0.004C2.11,3.13,2.113,3.131,2.115,3.132c0.001,0.001,0.003,0.001,0.004,0.002c0.084,0.038,0.164,0.084,0.24,0.137l0.008,0.006l9.631,7.012l0.001,0V3.001L12,3.001z M1.504,3.001c-0.001,0-0.003,0-0.004,0h0.005C1.505,3.001,1.505,3.001,1.504,3.001L1.504,3.001z"></path>
  <path fill="#AC392C" d="M0.491,5.608l0.021,0.021L3,8.093l0.001,0.001V8.032V7.448L3,7.448L0.631,5.722l0,0L0.491,5.608L0.491,5.608z M0.473,5.59L0.471,5.592l0.019,0.016L0.473,5.59L0.473,5.59z"></path>
  <polygon fill="#C6C6C6" points="3.001 8.032 3.001 8.032 3.001 8.094 3 21 10.334 15.296 10.333 15.293 3.001 8.032"></polygon>
  <linearGradient id="b" x1="-1822.999" x2="-1821.999" y1="325.658" y2="325.658" gradientTransform="translate(16408.543 -2919.291)scale(8.9992)" gradientUnits="userSpaceOnUse">
    <stop offset="0" stop-color="#aeaeae"></stop>
    <stop offset="1" stop-color="#b2b2b2"></stop>
  </linearGradient>
  <polygon fill="url(#b)" points="3.001 7.448 3.001 8.032 10.333 15.293 10.334 15.296 10.334 15.295 10.333 15.293 12 14 3.001 7.448"></polygon>
  <linearGradient id="c" x1="-1825.344" x2="-1824.344" y1="341.153" y2="341.153" gradientTransform="translate(19481.559 -3623.649)scale(10.6672)" gradientUnits="userSpaceOnUse">
    <stop offset="0" stop-color="#bdbdbd"></stop>
    <stop offset="1" stop-color="#c5c5c5"></stop>
  </linearGradient>
  <polygon fill="url(#c)" points="12 14 12 14 10.333 15.293 10.334 15.295 12 16.964 12 14"></polygon>
</svg>
